<svg xmlns="http://www.w3.org/2000/svg" viewBox="0 0 1200 630" role="img" aria-labelledby="title desc">
  <title id="title">SuiteGenie social preview</title>
  <desc id="desc">Default social share image for SuiteGenie featuring the brand name and tagline.</desc>
  <defs>
    <linearGradient id="bg" x1="0%" y1="0%" x2="100%" y2="100%">
      <stop offset="0%" stop-color="#eff6ff" />
      <stop offset="50%" stop-color="#dbeafe" />
      <stop offset="100%" stop-color="#ede9fe" />
    </linearGradient>
    <linearGradient id="panel" x1="0%" y1="0%" x2="100%" y2="100%">
      <stop offset="0%" stop-color="#2563eb" />
      <stop offset="100%" stop-color="#1d4ed8" />
    </linearGradient>
  </defs>
  <rect width="1200" height="630" fill="url(#bg)" />
  <circle cx="1040" cy="120" r="110" fill="#bfdbfe" opacity="0.55" />
  <circle cx="140" cy="520" r="140" fill="#c4b5fd" opacity="0.35" />
  <rect x="88" y="76" width="160" height="160" rx="36" fill="url(#panel)" />
  <path
    d="M194 113c-15-12-33-19-56-19-33 0-58 17-58 44 0 24 16 36 48 42l22 5c20 4 29 9 29 20 0 13-13 22-34 22-23 0-40-7-55-23l-26 26c20 20 46 30 79 30 43 0 71-22 71-55 0-27-16-41-51-48l-21-4c-18-4-27-8-27-18 0-11 11-18 28-18 17 0 31 5 44 15z"
    fill="#ffffff"
  />
  <text x="300" y="190" font-family="Arial, Helvetica, sans-serif" font-size="64" font-weight="700" fill="#0f172a">
    SuiteGenie
  </text>
  <text x="300" y="268" font-family="Arial, Helvetica, sans-serif" font-size="34" font-weight="500" fill="#1d4ed8">
    AI social media automation for creators, founders, and teams
  </text>
  <text x="88" y="392" font-family="Arial, Helvetica, sans-serif" font-size="28" fill="#334155">
    Plan, generate, schedule, collaborate, and publish across X and LinkedIn
  </text>
  <text x="88" y="440" font-family="Arial, Helvetica, sans-serif" font-size="28" fill="#334155">
    with strategy builder, BYOK, analytics, and team workflows.
  </text>
  <rect x="88" y="500" width="288" height="64" rx="18" fill="#1d4ed8" />
  <text x="232" y="542" text-anchor="middle" font-family="Arial, Helvetica, sans-serif" font-size="28" font-weight="700" fill="#ffffff">
    suitegenie.in
  </text>
</svg>
